<svg width="284" height="64" viewBox="0 0 284 64" fill="none" xmlns="http://www.w3.org/2000/svg">
<path fill-rule="evenodd" clip-rule="evenodd" d="M43.9812 4.41524C43.9852 4.48606 43.9877 4.55689 43.9877 4.62862C43.8008 33.483 41.7614 38.1298 25.0832 55.36C21.6873 59.4763 21.0596 62.2102 28.5755 63.9919C23.7566 64.0048 24.1861 63.9922 23.6725 63.9919C21.6735 63.9919 20.0374 62.3561 20.0374 60.3565V43.9544H3.63509C1.63544 43.9544 0 42.3184 0 40.3191V23.6393C0 21.6399 1.63544 20.0039 3.63509 20.0039H20.0374V4.62862C20.0374 4.48546 20.0495 4.34874 20.0676 4.21513V3.63539C20.0676 1.63574 21.7034 0 23.703 0H40.3828C42.3818 0 44.0179 1.63574 44.0179 3.63539L43.9812 4.41524Z" fill="white"/>
<path fill-rule="evenodd" clip-rule="evenodd" d="M28.4363 55.6594C50.3718 36.4803 53.8588 31.7212 54.5848 20.0096H60.4834C62.483 20.0096 64.1188 21.6451 64.1188 23.6447V40.3245C64.1188 42.3238 62.483 43.9599 60.4834 43.9599H44.0813V60.3619C44.0813 62.3612 42.4447 64.001 40.4462 63.9973C37.3706 63.9914 27.9736 64.2396 26.6026 61.184C25.695 59.1606 26.5306 57.6677 28.4363 55.6594Z" fill="white" fill-opacity="0.48"/>
<path d="M85.5487 6.9H82.0687V13H80.8887V5.9H85.5487V6.9ZM90.2171 10.49C90.2171 11.27 89.9771 11.91 89.4971 12.41C89.0238 12.9033 88.4138 13.15 87.6671 13.15C86.9138 13.15 86.2971 12.9033 85.8171 12.41C85.3438 11.9167 85.1071 11.2767 85.1071 10.49C85.1071 9.69667 85.3438 9.05333 85.8171 8.56C86.2971 8.06667 86.9138 7.82 87.6671 7.82C88.4138 7.82 89.0238 8.07 89.4971 8.57C89.9771 9.06333 90.2171 9.70333 90.2171 10.49ZM86.2271 10.49C86.2271 11.01 86.3571 11.43 86.6171 11.75C86.8771 12.0633 87.2271 12.22 87.6671 12.22C88.0938 12.22 88.4371 12.0633 88.6971 11.75C88.9638 11.43 89.0971 11.01 89.0971 10.49C89.0971 9.96333 88.9671 9.54333 88.7071 9.23C88.4471 8.91 88.1004 8.75 87.6671 8.75C87.2271 8.75 86.8771 8.91 86.6171 9.23C86.3571 9.54333 86.2271 9.96333 86.2271 10.49ZM93.4181 8.75C92.9714 8.75 92.6248 8.92 92.3781 9.26C92.1381 9.59333 92.0181 10.0033 92.0181 10.49C92.0181 10.9767 92.1381 11.3867 92.3781 11.72C92.6248 12.0467 92.9714 12.21 93.4181 12.21C93.6714 12.21 93.9014 12.1533 94.1081 12.04C94.3214 11.92 94.5648 11.71 94.8381 11.41L95.5681 12.02C95.2414 12.4333 94.9114 12.7267 94.5781 12.9C94.2448 13.0667 93.8548 13.15 93.4081 13.15C92.6548 13.15 92.0481 12.91 91.5881 12.43C91.1281 11.9433 90.8981 11.2967 90.8981 10.49C90.8981 9.68333 91.1314 9.03667 91.5981 8.55C92.0648 8.06333 92.6714 7.82 93.4181 7.82C93.8381 7.82 94.2081 7.89333 94.5281 8.04C94.8481 8.18667 95.1681 8.43 95.4881 8.77L94.7881 9.45C94.5214 9.18333 94.2848 9 94.0781 8.9C93.8781 8.8 93.6581 8.75 93.4181 8.75ZM99.5434 7.98H100.663L98.6934 13.62C98.5334 14.1 98.3301 14.44 98.0834 14.64C97.8368 14.84 97.4934 14.94 97.0534 14.94C96.7468 14.94 96.4534 14.9033 96.1734 14.83L96.3534 14C96.5934 14.04 96.7834 14.06 96.9234 14.06C97.1234 14.06 97.2901 14.0067 97.4234 13.9C97.5568 13.7933 97.6634 13.61 97.7434 13.35L97.7734 13.26L95.8834 7.98H97.0434L97.5334 9.45C97.8734 10.4567 98.1301 11.2433 98.3034 11.81C98.5834 10.89 98.8334 10.1 99.0534 9.44L99.5434 7.98ZM100.67 14.25V12.11H101.16C101.56 11.6767 101.764 10.9367 101.77 9.89L101.79 7.98H105.64V12.11H106.36V14.25H105.3V13H101.73V14.25H100.67ZM102.3 12.11H104.54V8.87H102.79L102.77 9.93C102.75 11.03 102.594 11.7567 102.3 12.11ZM111.424 9.57V13H110.434V12.43C110.101 12.9167 109.547 13.16 108.774 13.16C108.234 13.16 107.797 13.04 107.464 12.8C107.137 12.56 106.974 12.2067 106.974 11.74C106.974 11.2133 107.171 10.8233 107.564 10.57C107.971 10.3033 108.524 10.1067 109.224 9.98L110.374 9.77V9.59C110.374 9.31667 110.281 9.10667 110.094 8.96C109.907 8.80667 109.654 8.73 109.334 8.73C109.027 8.73 108.757 8.79333 108.524 8.92C108.297 9.04 108.031 9.25333 107.724 9.56L107.034 8.92C107.647 8.18667 108.404 7.82 109.304 7.82C109.977 7.82 110.497 7.97667 110.864 8.29C111.237 8.60333 111.424 9.03 111.424 9.57ZM110.374 11.03V10.57L109.504 10.75C108.977 10.8633 108.604 10.9867 108.384 11.12C108.164 11.2467 108.054 11.4333 108.054 11.68C108.054 11.8667 108.131 12.0133 108.284 12.12C108.444 12.2267 108.661 12.28 108.934 12.28C109.354 12.28 109.697 12.17 109.964 11.95C110.237 11.7233 110.374 11.4167 110.374 11.03ZM117.553 10.48C117.553 11.2733 117.343 11.9133 116.923 12.4C116.503 12.8867 115.969 13.13 115.323 13.13C114.636 13.13 114.113 12.8933 113.753 12.42V14.8H112.653V7.98H113.673V8.69C114.039 8.12333 114.593 7.84 115.333 7.84C115.979 7.84 116.509 8.08333 116.923 8.57C117.343 9.05667 117.553 9.69333 117.553 10.48ZM116.063 11.72C116.309 11.4067 116.433 10.9933 116.433 10.48C116.433 9.96667 116.313 9.55667 116.073 9.25C115.833 8.93667 115.509 8.78 115.103 8.78C114.683 8.78 114.343 8.93667 114.083 9.25C113.829 9.55667 113.703 9.96667 113.703 10.48C113.703 11 113.833 11.4133 114.093 11.72C114.353 12.0267 114.689 12.18 115.103 12.18C115.503 12.18 115.823 12.0267 116.063 11.72ZM120.762 8.75C120.315 8.75 119.969 8.92 119.722 9.26C119.482 9.59333 119.362 10.0033 119.362 10.49C119.362 10.9767 119.482 11.3867 119.722 11.72C119.969 12.0467 120.315 12.21 120.762 12.21C121.015 12.21 121.245 12.1533 121.452 12.04C121.665 11.92 121.909 11.71 122.182 11.41L122.912 12.02C122.585 12.4333 122.255 12.7267 121.922 12.9C121.589 13.0667 121.199 13.15 120.752 13.15C119.999 13.15 119.392 12.91 118.932 12.43C118.472 11.9433 118.242 11.2967 118.242 10.49C118.242 9.68333 118.475 9.03667 118.942 8.55C119.409 8.06333 120.015 7.82 120.762 7.82C121.182 7.82 121.552 7.89333 121.872 8.04C122.192 8.18667 122.512 8.43 122.832 8.77L122.132 9.45C121.865 9.18333 121.629 9 121.422 8.9C121.222 8.8 121.002 8.75 120.762 8.75ZM127.708 8.87H126.038V13H124.938V8.87H123.278V7.98H127.708V8.87ZM133.062 11.6C133.062 12.0267 132.912 12.3667 132.612 12.62C132.312 12.8733 131.898 13 131.372 13H128.552V7.98H131.202C131.722 7.98 132.138 8.1 132.452 8.34C132.772 8.57333 132.932 8.89667 132.932 9.31C132.932 9.57 132.855 9.8 132.702 10C132.548 10.1933 132.342 10.3333 132.082 10.42C132.388 10.5 132.628 10.6433 132.802 10.85C132.975 11.05 133.062 11.3 133.062 11.6ZM129.632 8.81V10.07H131.012C131.565 10.07 131.842 9.85333 131.842 9.42C131.842 9.01333 131.568 8.81 131.022 8.81H129.632ZM131.042 12.15C131.648 12.15 131.952 11.93 131.952 11.49C131.952 11.05 131.642 10.83 131.022 10.83H129.632V12.15H131.042ZM137.939 11.47L138.579 12.14C138.225 12.5 137.872 12.76 137.519 12.92C137.172 13.0733 136.785 13.15 136.359 13.15C135.565 13.15 134.939 12.9133 134.479 12.44C134.019 11.96 133.789 11.32 133.789 10.52C133.789 9.72667 134.012 9.08 134.459 8.58C134.912 8.07333 135.512 7.82 136.259 7.82C136.992 7.82 137.559 8.04 137.959 8.48C138.365 8.91333 138.569 9.51667 138.569 10.29C138.569 10.4167 138.562 10.5667 138.549 10.74H134.869C134.909 11.1933 135.059 11.5533 135.319 11.82C135.579 12.0867 135.932 12.22 136.379 12.22C136.665 12.22 136.915 12.1667 137.129 12.06C137.342 11.9533 137.612 11.7567 137.939 11.47ZM134.899 9.94H137.489C137.469 9.55333 137.349 9.25 137.129 9.03C136.909 8.80333 136.609 8.69 136.229 8.69C135.875 8.69 135.582 8.8 135.349 9.02C135.122 9.23333 134.972 9.54 134.899 9.94ZM143.937 13H142.837V10.84H140.677V13H139.577V7.98H140.677V9.94H142.837V7.98H143.937V13ZM149.582 13H148.482V10.84H146.322V13H145.222V7.98H146.322V9.94H148.482V7.98H149.582V13ZM155.676 10.49C155.676 11.27 155.436 11.91 154.956 12.41C154.483 12.9033 153.873 13.15 153.126 13.15C152.373 13.15 151.756 12.9033 151.276 12.41C150.803 11.9167 150.566 11.2767 150.566 10.49C150.566 9.69667 150.803 9.05333 151.276 8.56C151.756 8.06667 152.373 7.82 153.126 7.82C153.873 7.82 154.483 8.07 154.956 8.57C155.436 9.06333 155.676 9.70333 155.676 10.49ZM151.686 10.49C151.686 11.01 151.816 11.43 152.076 11.75C152.336 12.0633 152.686 12.22 153.126 12.22C153.553 12.22 153.896 12.0633 154.156 11.75C154.423 11.43 154.556 11.01 154.556 10.49C154.556 9.96333 154.426 9.54333 154.166 9.23C153.906 8.91 153.559 8.75 153.126 8.75C152.686 8.75 152.336 8.91 152.076 9.23C151.816 9.54333 151.686 9.96333 151.686 10.49ZM160.507 11.47L161.147 12.14C160.794 12.5 160.44 12.76 160.087 12.92C159.74 13.0733 159.354 13.15 158.927 13.15C158.134 13.15 157.507 12.9133 157.047 12.44C156.587 11.96 156.357 11.32 156.357 10.52C156.357 9.72667 156.58 9.08 157.027 8.58C157.48 8.07333 158.08 7.82 158.827 7.82C159.56 7.82 160.127 8.04 160.527 8.48C160.934 8.91333 161.137 9.51667 161.137 10.29C161.137 10.4167 161.13 10.5667 161.117 10.74H157.437C157.477 11.1933 157.627 11.5533 157.887 11.82C158.147 12.0867 158.5 12.22 158.947 12.22C159.234 12.22 159.484 12.1667 159.697 12.06C159.91 11.9533 160.18 11.7567 160.507 11.47ZM157.467 9.94H160.057C160.037 9.55333 159.917 9.25 159.697 9.03C159.477 8.80333 159.177 8.69 158.797 8.69C158.444 8.69 158.15 8.8 157.917 9.02C157.69 9.23333 157.54 9.54 157.467 9.94ZM169.302 13L168.742 11.4H165.612L165.062 13H163.862L166.422 5.9H167.972L170.532 13H169.302ZM165.952 10.42H168.402L168.102 9.55L167.872 8.88C167.539 7.94 167.309 7.24667 167.182 6.8C167.029 7.30667 166.745 8.15 166.332 9.33L166.252 9.56L165.952 10.42ZM175.816 11.6C175.816 12.0267 175.666 12.3667 175.366 12.62C175.066 12.8733 174.652 13 174.126 13H171.306V7.98H173.956C174.476 7.98 174.892 8.1 175.206 8.34C175.526 8.57333 175.686 8.89667 175.686 9.31C175.686 9.57 175.609 9.8 175.456 10C175.302 10.1933 175.096 10.3333 174.836 10.42C175.142 10.5 175.382 10.6433 175.556 10.85C175.729 11.05 175.816 11.3 175.816 11.6ZM172.386 8.81V10.07H173.766C174.319 10.07 174.596 9.85333 174.596 9.42C174.596 9.01333 174.322 8.81 173.776 8.81H172.386ZM173.796 12.15C174.402 12.15 174.706 11.93 174.706 11.49C174.706 11.05 174.396 10.83 173.776 10.83H172.386V12.15H173.796ZM180.715 8.87H179.045V13H177.945V8.87H176.285V7.98H180.715V8.87ZM186.184 10.49C186.184 11.27 185.944 11.91 185.464 12.41C184.991 12.9033 184.381 13.15 183.634 13.15C182.881 13.15 182.264 12.9033 181.784 12.41C181.311 11.9167 181.074 11.2767 181.074 10.49C181.074 9.69667 181.311 9.05333 181.784 8.56C182.264 8.06667 182.881 7.82 183.634 7.82C184.381 7.82 184.991 8.07 185.464 8.57C185.944 9.06333 186.184 9.70333 186.184 10.49ZM182.194 10.49C182.194 11.01 182.324 11.43 182.584 11.75C182.844 12.0633 183.194 12.22 183.634 12.22C184.061 12.22 184.404 12.0633 184.664 11.75C184.931 11.43 185.064 11.01 185.064 10.49C185.064 9.96333 184.934 9.54333 184.674 9.23C184.414 8.91 184.067 8.75 183.634 8.75C183.194 8.75 182.844 8.91 182.584 9.23C182.324 9.54333 182.194 9.96333 182.194 10.49ZM191.525 13H190.425V10.84H188.265V13H187.165V7.98H188.265V9.94H190.425V7.98H191.525V13ZM197.619 10.49C197.619 11.27 197.379 11.91 196.899 12.41C196.426 12.9033 195.816 13.15 195.069 13.15C194.316 13.15 193.699 12.9033 193.219 12.41C192.746 11.9167 192.509 11.2767 192.509 10.49C192.509 9.69667 192.746 9.05333 193.219 8.56C193.699 8.06667 194.316 7.82 195.069 7.82C195.816 7.82 196.426 8.07 196.899 8.57C197.379 9.06333 197.619 9.70333 197.619 10.49ZM193.629 10.49C193.629 11.01 193.759 11.43 194.019 11.75C194.279 12.0633 194.629 12.22 195.069 12.22C195.496 12.22 195.839 12.0633 196.099 11.75C196.366 11.43 196.499 11.01 196.499 10.49C196.499 9.96333 196.369 9.54333 196.109 9.23C195.849 8.91 195.503 8.75 195.069 8.75C194.629 8.75 194.279 8.91 194.019 9.23C193.759 9.54333 193.629 9.96333 193.629 10.49ZM203.03 7.98H204.62V13H203.59V10.91C203.59 10.1567 203.604 9.43667 203.63 8.75L203.54 9.02L203.33 9.63C203.224 9.93 203.12 10.2067 203.02 10.46L202.09 13H201.11L200.18 10.46L199.58 8.76C199.607 9.46 199.62 10.1767 199.62 10.91V13H198.6V7.98H200.23L201.01 10.11C201.244 10.7233 201.447 11.3233 201.62 11.91C201.867 11.13 202.07 10.53 202.23 10.11L203.03 7.98ZM210.265 13H209.165V10.84H207.005V13H205.905V7.98H207.005V9.94H209.165V7.98H210.265V13ZM216.36 10.49C216.36 11.27 216.12 11.91 215.64 12.41C215.166 12.9033 214.556 13.15 213.81 13.15C213.056 13.15 212.44 12.9033 211.96 12.41C211.486 11.9167 211.25 11.2767 211.25 10.49C211.25 9.69667 211.486 9.05333 211.96 8.56C212.44 8.06667 213.056 7.82 213.81 7.82C214.556 7.82 215.166 8.07 215.64 8.57C216.12 9.06333 216.36 9.70333 216.36 10.49ZM212.37 10.49C212.37 11.01 212.5 11.43 212.76 11.75C213.02 12.0633 213.37 12.22 213.81 12.22C214.236 12.22 214.58 12.0633 214.84 11.75C215.106 11.43 215.24 11.01 215.24 10.49C215.24 9.96333 215.11 9.54333 214.85 9.23C214.59 8.91 214.243 8.75 213.81 8.75C213.37 8.75 213.02 8.91 212.76 9.23C212.5 9.54333 212.37 9.96333 212.37 10.49ZM221.191 11.47L221.831 12.14C221.477 12.5 221.124 12.76 220.771 12.92C220.424 13.0733 220.037 13.15 219.611 13.15C218.817 13.15 218.191 12.9133 217.731 12.44C217.271 11.96 217.041 11.32 217.041 10.52C217.041 9.72667 217.264 9.08 217.711 8.58C218.164 8.07333 218.764 7.82 219.511 7.82C220.244 7.82 220.811 8.04 221.211 8.48C221.617 8.91333 221.821 9.51667 221.821 10.29C221.821 10.4167 221.814 10.5667 221.801 10.74H218.121C218.161 11.1933 218.311 11.5533 218.571 11.82C218.831 12.0867 219.184 12.22 219.631 12.22C219.917 12.22 220.167 12.1667 220.381 12.06C220.594 11.9533 220.864 11.7567 221.191 11.47ZM218.151 9.94H220.741C220.721 9.55333 220.601 9.25 220.381 9.03C220.161 8.80333 219.861 8.69 219.481 8.69C219.127 8.69 218.834 8.8 218.601 9.02C218.374 9.23333 218.224 9.54 218.151 9.94ZM228.206 7.98H229.326L227.356 13.62C227.196 14.1 226.992 14.44 226.746 14.64C226.499 14.84 226.156 14.94 225.716 14.94C225.409 14.94 225.116 14.9033 224.836 14.83L225.016 14C225.256 14.04 225.446 14.06 225.586 14.06C225.786 14.06 225.952 14.0067 226.086 13.9C226.219 13.7933 226.326 13.61 226.406 13.35L226.436 13.26L224.546 7.98H225.706L226.196 9.45C226.536 10.4567 226.792 11.2433 226.966 11.81C227.246 10.89 227.496 10.1 227.716 9.44L228.206 7.98ZM233.084 7.98H234.184V13H233.084V11.11C232.697 11.27 232.267 11.35 231.794 11.35C231.134 11.35 230.654 11.2167 230.354 10.95C230.054 10.6833 229.904 10.2733 229.904 9.72V7.98H231.004V9.61C231.004 9.89667 231.077 10.1067 231.224 10.24C231.377 10.3667 231.631 10.43 231.984 10.43C232.444 10.43 232.811 10.3667 233.084 10.24V7.98ZM240.346 10.48C240.346 11.2733 240.136 11.9133 239.716 12.4C239.296 12.8867 238.762 13.13 238.116 13.13C237.429 13.13 236.906 12.8933 236.546 12.42V14.8H235.446V7.98H236.466V8.69C236.832 8.12333 237.386 7.84 238.126 7.84C238.772 7.84 239.302 8.08333 239.716 8.57C240.136 9.05667 240.346 9.69333 240.346 10.48ZM238.856 11.72C239.102 11.4067 239.226 10.9933 239.226 10.48C239.226 9.96667 239.106 9.55667 238.866 9.25C238.626 8.93667 238.302 8.78 237.896 8.78C237.476 8.78 237.136 8.93667 236.876 9.25C236.622 9.55667 236.496 9.96667 236.496 10.48C236.496 11 236.626 11.4133 236.886 11.72C237.146 12.0267 237.482 12.18 237.896 12.18C238.296 12.18 238.616 12.0267 238.856 11.72ZM245.185 11.47L245.825 12.14C245.471 12.5 245.118 12.76 244.765 12.92C244.418 13.0733 244.031 13.15 243.605 13.15C242.811 13.15 242.185 12.9133 241.725 12.44C241.265 11.96 241.035 11.32 241.035 10.52C241.035 9.72667 241.258 9.08 241.705 8.58C242.158 8.07333 242.758 7.82 243.505 7.82C244.238 7.82 244.805 8.04 245.205 8.48C245.611 8.91333 245.815 9.51667 245.815 10.29C245.815 10.4167 245.808 10.5667 245.795 10.74H242.115C242.155 11.1933 242.305 11.5533 242.565 11.82C242.825 12.0867 243.178 12.22 243.625 12.22C243.911 12.22 244.161 12.1667 244.375 12.06C244.588 11.9533 244.858 11.7567 245.185 11.47ZM242.145 9.94H244.735C244.715 9.55333 244.595 9.25 244.375 9.03C244.155 8.80333 243.855 8.69 243.475 8.69C243.121 8.69 242.828 8.8 242.595 9.02C242.368 9.23333 242.218 9.54 242.145 9.94ZM252.608 13L251.188 10.84H250.488V13H249.438V10.84H248.738L247.318 13H246.098L247.868 10.34L246.258 7.98H247.448L248.738 9.94H249.438V7.98H250.488V9.94H251.198L252.478 7.98H253.668L252.068 10.34L253.838 13H252.608ZM254.215 14.25V12.11H254.705C255.105 11.6767 255.309 10.9367 255.315 9.89L255.335 7.98H259.185V12.11H259.905V14.25H258.845V13H255.275V14.25H254.215ZM255.845 12.11H258.085V8.87H256.335L256.315 9.93C256.295 11.03 256.139 11.7567 255.845 12.11ZM264.482 11.47L265.122 12.14C264.768 12.5 264.415 12.76 264.062 12.92C263.715 13.0733 263.328 13.15 262.902 13.15C262.108 13.15 261.482 12.9133 261.022 12.44C260.562 11.96 260.332 11.32 260.332 10.52C260.332 9.72667 260.555 9.08 261.002 8.58C261.455 8.07333 262.055 7.82 262.802 7.82C263.535 7.82 264.102 8.04 264.502 8.48C264.908 8.91333 265.112 9.51667 265.112 10.29C265.112 10.4167 265.105 10.5667 265.092 10.74H261.412C261.452 11.1933 261.602 11.5533 261.862 11.82C262.122 12.0867 262.475 12.22 262.922 12.22C263.208 12.22 263.458 12.1667 263.672 12.06C263.885 11.9533 264.155 11.7567 264.482 11.47ZM261.442 9.94H264.032C264.012 9.55333 263.892 9.25 263.672 9.03C263.452 8.80333 263.152 8.69 262.772 8.69C262.418 8.69 262.125 8.8 261.892 9.02C261.665 9.23333 261.515 9.54 261.442 9.94ZM270.48 13H269.38V10.84H267.22V13H266.12V7.98H267.22V9.94H269.38V7.98H270.48V13ZM275.145 7.98H276.345V13H275.315V11.16C275.315 10.2067 275.328 9.50667 275.355 9.06C274.868 9.88667 274.528 10.46 274.335 10.78L272.965 13H271.765V7.98H272.785V9.92C272.785 10.6533 272.775 11.3167 272.755 11.91C273.121 11.2567 273.458 10.6833 273.765 10.19L275.145 7.98ZM281.474 11.47L282.114 12.14C281.761 12.5 281.407 12.76 281.054 12.92C280.707 13.0733 280.321 13.15 279.894 13.15C279.101 13.15 278.474 12.9133 278.014 12.44C277.554 11.96 277.324 11.32 277.324 10.52C277.324 9.72667 277.547 9.08 277.994 8.58C278.447 8.07333 279.047 7.82 279.794 7.82C280.527 7.82 281.094 8.04 281.494 8.48C281.901 8.91333 282.104 9.51667 282.104 10.29C282.104 10.4167 282.097 10.5667 282.084 10.74H278.404C278.444 11.1933 278.594 11.5533 278.854 11.82C279.114 12.0867 279.467 12.22 279.914 12.22C280.201 12.22 280.451 12.1667 280.664 12.06C280.877 11.9533 281.147 11.7567 281.474 11.47ZM278.434 9.94H281.024C281.004 9.55333 280.884 9.25 280.664 9.03C280.444 8.80333 280.144 8.69 279.764 8.69C279.411 8.69 279.117 8.8 278.884 9.02C278.657 9.23333 278.507 9.54 278.434 9.94Z" fill="white" fill-opacity="0.48"/>
<path d="M86.2587 21.94C86.2587 22.6133 85.9953 23.1533 85.4687 23.56C84.9487 23.96 84.252 24.16 83.3787 24.16C82.252 24.16 81.262 23.7667 80.4087 22.98L81.0987 22.17C81.4853 22.51 81.852 22.7567 82.1987 22.91C82.552 23.0567 82.9487 23.13 83.3887 23.13C83.9153 23.13 84.3287 23.0233 84.6287 22.81C84.9287 22.5967 85.0787 22.29 85.0787 21.89C85.0787 21.5567 84.9487 21.2967 84.6887 21.11C84.4353 20.9233 84.0587 20.83 83.5587 20.83H82.1887V19.87H83.5187C84.4187 19.87 84.8687 19.5267 84.8687 18.84C84.8687 18.52 84.7353 18.2633 84.4687 18.07C84.202 17.87 83.8453 17.77 83.3987 17.77C82.9987 17.77 82.642 17.8333 82.3287 17.96C82.0153 18.0867 81.6787 18.3033 81.3187 18.61L80.6187 17.8C81.052 17.4267 81.4853 17.1567 81.9187 16.99C82.352 16.8233 82.8387 16.74 83.3787 16.74C84.1987 16.74 84.8453 16.92 85.3187 17.28C85.792 17.64 86.0287 18.13 86.0287 18.75C86.0287 19.49 85.672 20.0033 84.9587 20.29C85.8253 20.5767 86.2587 21.1267 86.2587 21.94ZM86.6568 25.25V23.11H87.1468C87.5468 22.6767 87.7501 21.9367 87.7568 20.89L87.7768 18.98H91.6268V23.11H92.3468V25.25H91.2868V24H87.7168V25.25H86.6568ZM88.2868 23.11H90.5268V19.87H88.7768L88.7568 20.93C88.7368 22.03 88.5801 22.7567 88.2868 23.11ZM98.1191 21.48C98.1191 22.2733 97.9091 22.9133 97.4891 23.4C97.0691 23.8867 96.5358 24.13 95.8891 24.13C95.2025 24.13 94.6791 23.8933 94.3191 23.42V25.8H93.2191V18.98H94.2391V19.69C94.6058 19.1233 95.1591 18.84 95.8991 18.84C96.5458 18.84 97.0758 19.0833 97.4891 19.57C97.9091 20.0567 98.1191 20.6933 98.1191 21.48ZM96.6291 22.72C96.8758 22.4067 96.9991 21.9933 96.9991 21.48C96.9991 20.9667 96.8791 20.5567 96.6391 20.25C96.3991 19.9367 96.0758 19.78 95.6691 19.78C95.2491 19.78 94.9091 19.9367 94.6491 20.25C94.3958 20.5567 94.2691 20.9667 94.2691 21.48C94.2691 22 94.3991 22.4133 94.6591 22.72C94.9191 23.0267 95.2558 23.18 95.6691 23.18C96.0691 23.18 96.3891 23.0267 96.6291 22.72ZM103.328 20.57V24H102.338V23.43C102.005 23.9167 101.452 24.16 100.678 24.16C100.138 24.16 99.7016 24.04 99.3683 23.8C99.0416 23.56 98.8783 23.2067 98.8783 22.74C98.8783 22.2133 99.0749 21.8233 99.4683 21.57C99.8749 21.3033 100.428 21.1067 101.128 20.98L102.278 20.77V20.59C102.278 20.3167 102.185 20.1067 101.998 19.96C101.812 19.8067 101.558 19.73 101.238 19.73C100.932 19.73 100.662 19.7933 100.428 19.92C100.202 20.04 99.9349 20.2533 99.6283 20.56L98.9383 19.92C99.5516 19.1867 100.308 18.82 101.208 18.82C101.882 18.82 102.402 18.9767 102.768 19.29C103.142 19.6033 103.328 20.03 103.328 20.57ZM102.278 22.03V21.57L101.408 21.75C100.882 21.8633 100.508 21.9867 100.288 22.12C100.068 22.2467 99.9583 22.4333 99.9583 22.68C99.9583 22.8667 100.035 23.0133 100.188 23.12C100.348 23.2267 100.565 23.28 100.838 23.28C101.258 23.28 101.602 23.17 101.868 22.95C102.142 22.7233 102.278 22.4167 102.278 22.03ZM109.087 22.6C109.087 23.0267 108.937 23.3667 108.637 23.62C108.337 23.8733 107.924 24 107.397 24H104.577V18.98H107.227C107.747 18.98 108.164 19.1 108.477 19.34C108.797 19.5733 108.957 19.8967 108.957 20.31C108.957 20.57 108.88 20.8 108.727 21C108.574 21.1933 108.367 21.3333 108.107 21.42C108.414 21.5 108.654 21.6433 108.827 21.85C109 22.05 109.087 22.3 109.087 22.6ZM105.657 19.81V21.07H107.037C107.59 21.07 107.867 20.8533 107.867 20.42C107.867 20.0133 107.594 19.81 107.047 19.81H105.657ZM107.067 23.15C107.674 23.15 107.977 22.93 107.977 22.49C107.977 22.05 107.667 21.83 107.047 21.83H105.657V23.15H107.067ZM114.924 21.49C114.924 22.27 114.684 22.91 114.204 23.41C113.731 23.9033 113.121 24.15 112.374 24.15C111.621 24.15 111.004 23.9033 110.524 23.41C110.051 22.9167 109.814 22.2767 109.814 21.49C109.814 20.6967 110.051 20.0533 110.524 19.56C111.004 19.0667 111.621 18.82 112.374 18.82C113.121 18.82 113.731 19.07 114.204 19.57C114.684 20.0633 114.924 20.7033 114.924 21.49ZM110.934 21.49C110.934 22.01 111.064 22.43 111.324 22.75C111.584 23.0633 111.934 23.22 112.374 23.22C112.801 23.22 113.144 23.0633 113.404 22.75C113.671 22.43 113.804 22.01 113.804 21.49C113.804 20.9633 113.674 20.5433 113.414 20.23C113.154 19.91 112.807 19.75 112.374 19.75C111.934 19.75 111.584 19.91 111.324 20.23C111.064 20.5433 110.934 20.9633 110.934 21.49ZM120.715 21.49C120.715 22.27 120.475 22.91 119.995 23.41C119.522 23.9033 118.912 24.15 118.165 24.15C117.412 24.15 116.795 23.9033 116.315 23.41C115.842 22.9167 115.605 22.2767 115.605 21.49C115.605 20.6967 115.842 20.0533 116.315 19.56C116.795 19.0667 117.412 18.82 118.165 18.82C118.912 18.82 119.522 19.07 119.995 19.57C120.475 20.0633 120.715 20.7033 120.715 21.49ZM116.725 21.49C116.725 22.01 116.855 22.43 117.115 22.75C117.375 23.0633 117.725 23.22 118.165 23.22C118.592 23.22 118.935 23.0633 119.195 22.75C119.462 22.43 119.595 22.01 119.595 21.49C119.595 20.9633 119.465 20.5433 119.205 20.23C118.945 19.91 118.598 19.75 118.165 19.75C117.725 19.75 117.375 19.91 117.115 20.23C116.855 20.5433 116.725 20.9633 116.725 21.49ZM125.733 24H124.513L123.293 22.14L122.043 24H120.853L122.673 21.37L121.013 18.98H122.213L123.303 20.59L124.373 18.98H125.563L123.923 21.33L125.733 24ZM131.332 21.48C131.332 22.2733 131.122 22.9133 130.702 23.4C130.282 23.8867 129.749 24.13 129.102 24.13C128.415 24.13 127.892 23.8933 127.532 23.42V25.8H126.432V18.98H127.452V19.69C127.819 19.1233 128.372 18.84 129.112 18.84C129.759 18.84 130.289 19.0833 130.702 19.57C131.122 20.0567 131.332 20.6933 131.332 21.48ZM129.842 22.72C130.089 22.4067 130.212 21.9933 130.212 21.48C130.212 20.9667 130.092 20.5567 129.852 20.25C129.612 19.9367 129.289 19.78 128.882 19.78C128.462 19.78 128.122 19.9367 127.862 20.25C127.609 20.5567 127.482 20.9667 127.482 21.48C127.482 22 127.612 22.4133 127.872 22.72C128.132 23.0267 128.469 23.18 128.882 23.18C129.282 23.18 129.602 23.0267 129.842 22.72ZM136.541 20.57V24H135.551V23.43C135.218 23.9167 134.664 24.16 133.891 24.16C133.351 24.16 132.914 24.04 132.581 23.8C132.254 23.56 132.091 23.2067 132.091 22.74C132.091 22.2133 132.288 21.8233 132.681 21.57C133.088 21.3033 133.641 21.1067 134.341 20.98L135.491 20.77V20.59C135.491 20.3167 135.398 20.1067 135.211 19.96C135.024 19.8067 134.771 19.73 134.451 19.73C134.144 19.73 133.874 19.7933 133.641 19.92C133.414 20.04 133.148 20.2533 132.841 20.56L132.151 19.92C132.764 19.1867 133.521 18.82 134.421 18.82C135.094 18.82 135.614 18.9767 135.981 19.29C136.354 19.6033 136.541 20.03 136.541 20.57ZM135.491 22.03V21.57L134.621 21.75C134.094 21.8633 133.721 21.9867 133.501 22.12C133.281 22.2467 133.171 22.4333 133.171 22.68C133.171 22.8667 133.248 23.0133 133.401 23.12C133.561 23.2267 133.778 23.28 134.051 23.28C134.471 23.28 134.814 23.17 135.081 22.95C135.354 22.7233 135.491 22.4167 135.491 22.03ZM142.15 24H141.05V21.84H138.89V24H137.79V18.98H138.89V20.94H141.05V18.98H142.15V24ZM147.284 22.47L147.924 23.14C147.571 23.5 147.218 23.76 146.864 23.92C146.518 24.0733 146.131 24.15 145.704 24.15C144.911 24.15 144.284 23.9133 143.824 23.44C143.364 22.96 143.134 22.32 143.134 21.52C143.134 20.7267 143.358 20.08 143.804 19.58C144.258 19.0733 144.858 18.82 145.604 18.82C146.338 18.82 146.904 19.04 147.304 19.48C147.711 19.9133 147.914 20.5167 147.914 21.29C147.914 21.4167 147.908 21.5667 147.894 21.74H144.214C144.254 22.1933 144.404 22.5533 144.664 22.82C144.924 23.0867 145.278 23.22 145.724 23.22C146.011 23.22 146.261 23.1667 146.474 23.06C146.688 22.9533 146.958 22.7567 147.284 22.47ZM144.244 20.94H146.834C146.814 20.5533 146.694 20.25 146.474 20.03C146.254 19.8033 145.954 19.69 145.574 19.69C145.221 19.69 144.928 19.8 144.694 20.02C144.468 20.2333 144.318 20.54 144.244 20.94ZM153.283 24H152.183V21.84H150.023V24H148.923V18.98H150.023V20.94H152.183V18.98H153.283V24ZM157.947 18.98H159.147V24H158.117V22.16C158.117 21.2067 158.131 20.5067 158.157 20.06C157.671 20.8867 157.331 21.46 157.137 21.78L155.767 24H154.567V18.98H155.587V20.92C155.587 21.6533 155.577 22.3167 155.557 22.91C155.924 22.2567 156.261 21.6833 156.567 21.19L157.947 18.98ZM162.117 18.98H164.567V24H163.517V22.3H162.657L161.277 24H160.017L161.507 22.23C161.107 22.13 160.79 21.94 160.557 21.66C160.33 21.3733 160.217 21.03 160.217 20.63C160.217 20.13 160.39 19.73 160.737 19.43C161.083 19.13 161.543 18.98 162.117 18.98ZM163.517 21.42V19.86H162.247C161.947 19.86 161.717 19.93 161.557 20.07C161.397 20.2033 161.317 20.39 161.317 20.63C161.317 20.8767 161.397 21.07 161.557 21.21C161.723 21.35 161.953 21.42 162.247 21.42H163.517ZM173.003 24L172.443 22.4H169.313L168.763 24H167.563L170.123 16.9H171.673L174.233 24H173.003ZM169.653 21.42H172.103L171.803 20.55L171.573 19.88C171.24 18.94 171.01 18.2467 170.883 17.8C170.73 18.3067 170.446 19.15 170.033 20.33L169.953 20.56L169.653 21.42ZM179.437 18.98H181.027V24H179.997V21.91C179.997 21.1567 180.01 20.4367 180.037 19.75L179.947 20.02L179.737 20.63C179.63 20.93 179.527 21.2067 179.427 21.46L178.497 24H177.517L176.587 21.46L175.987 19.76C176.013 20.46 176.027 21.1767 176.027 21.91V24H175.007V18.98H176.637L177.417 21.11C177.65 21.7233 177.853 22.3233 178.027 22.91C178.273 22.13 178.477 21.53 178.637 21.11L179.437 18.98ZM185.461 18.98H186.581L184.611 24.62C184.451 25.1 184.248 25.44 184.001 25.64C183.755 25.84 183.411 25.94 182.971 25.94C182.665 25.94 182.371 25.9033 182.091 25.83L182.271 25C182.511 25.04 182.701 25.06 182.841 25.06C183.041 25.06 183.208 25.0067 183.341 24.9C183.475 24.7933 183.581 24.61 183.661 24.35L183.691 24.26L181.801 18.98H182.961L183.451 20.45C183.791 21.4567 184.048 22.2433 184.221 22.81C184.501 21.89 184.751 21.1 184.971 20.44L185.461 18.98ZM192.23 21.48C192.23 22.2733 192.02 22.9133 191.6 23.4C191.18 23.8867 190.647 24.13 190 24.13C189.314 24.13 188.79 23.8933 188.43 23.42V25.8H187.33V18.98H188.35V19.69C188.717 19.1233 189.27 18.84 190.01 18.84C190.657 18.84 191.187 19.0833 191.6 19.57C192.02 20.0567 192.23 20.6933 192.23 21.48ZM190.74 22.72C190.987 22.4067 191.11 21.9933 191.11 21.48C191.11 20.9667 190.99 20.5567 190.75 20.25C190.51 19.9367 190.187 19.78 189.78 19.78C189.36 19.78 189.02 19.9367 188.76 20.25C188.507 20.5567 188.38 20.9667 188.38 21.48C188.38 22 188.51 22.4133 188.77 22.72C189.03 23.0267 189.367 23.18 189.78 23.18C190.18 23.18 190.5 23.0267 190.74 22.72ZM195.44 19.75C194.993 19.75 194.646 19.92 194.4 20.26C194.16 20.5933 194.04 21.0033 194.04 21.49C194.04 21.9767 194.16 22.3867 194.4 22.72C194.646 23.0467 194.993 23.21 195.44 23.21C195.693 23.21 195.923 23.1533 196.13 23.04C196.343 22.92 196.586 22.71 196.86 22.41L197.59 23.02C197.263 23.4333 196.933 23.7267 196.6 23.9C196.266 24.0667 195.876 24.15 195.43 24.15C194.676 24.15 194.07 23.91 193.61 23.43C193.15 22.9433 192.92 22.2967 192.92 21.49C192.92 20.6833 193.153 20.0367 193.62 19.55C194.086 19.0633 194.693 18.82 195.44 18.82C195.86 18.82 196.23 18.8933 196.55 19.04C196.87 19.1867 197.19 19.43 197.51 19.77L196.81 20.45C196.543 20.1833 196.306 20 196.1 19.9C195.9 19.8 195.68 19.75 195.44 19.75ZM201.826 24L200.316 21.84H199.476V24H198.376V18.98H199.476V20.94H200.326L201.716 18.98H202.896L201.196 21.34L203.066 24H201.826ZM208.362 21.49C208.362 22.27 208.122 22.91 207.642 23.41C207.168 23.9033 206.558 24.15 205.812 24.15C205.058 24.15 204.442 23.9033 203.962 23.41C203.488 22.9167 203.252 22.2767 203.252 21.49C203.252 20.6967 203.488 20.0533 203.962 19.56C204.442 19.0667 205.058 18.82 205.812 18.82C206.558 18.82 207.168 19.07 207.642 19.57C208.122 20.0633 208.362 20.7033 208.362 21.49ZM204.372 21.49C204.372 22.01 204.502 22.43 204.762 22.75C205.022 23.0633 205.372 23.22 205.812 23.22C206.238 23.22 206.582 23.0633 206.842 22.75C207.108 22.43 207.242 22.01 207.242 21.49C207.242 20.9633 207.112 20.5433 206.852 20.23C206.592 19.91 206.245 19.75 205.812 19.75C205.372 19.75 205.022 19.91 204.762 20.23C204.502 20.5433 204.372 20.9633 204.372 21.49ZM213.923 18.98H212.723L211.343 21.19C211.036 21.6833 210.699 22.2567 210.333 22.91C210.353 22.3233 210.363 21.66 210.363 20.92V18.98H209.343V24H210.543L211.913 21.78C212.106 21.46 212.446 20.8867 212.933 20.06C212.906 20.5067 212.893 21.2067 212.893 22.16V24H213.923V18.98ZM213.323 16.98C213.323 17.4467 213.173 17.7967 212.873 18.03C212.573 18.2633 212.159 18.38 211.633 18.38C211.099 18.38 210.683 18.2633 210.383 18.03C210.083 17.7967 209.933 17.4467 209.933 16.98H210.833C210.833 17.46 211.099 17.7 211.633 17.7C212.166 17.7 212.433 17.46 212.433 16.98H213.323ZM222.239 21.49C222.239 22.27 221.999 22.91 221.519 23.41C221.045 23.9033 220.435 24.15 219.689 24.15C218.935 24.15 218.319 23.9033 217.839 23.41C217.365 22.9167 217.129 22.2767 217.129 21.49C217.129 20.6967 217.365 20.0533 217.839 19.56C218.319 19.0667 218.935 18.82 219.689 18.82C220.435 18.82 221.045 19.07 221.519 19.57C221.999 20.0633 222.239 20.7033 222.239 21.49ZM218.249 21.49C218.249 22.01 218.379 22.43 218.639 22.75C218.899 23.0633 219.249 23.22 219.689 23.22C220.115 23.22 220.459 23.0633 220.719 22.75C220.985 22.43 221.119 22.01 221.119 21.49C221.119 20.9633 220.989 20.5433 220.729 20.23C220.469 19.91 220.122 19.75 219.689 19.75C219.249 19.75 218.899 19.91 218.639 20.23C218.379 20.5433 218.249 20.9633 218.249 21.49ZM227.497 19.78C227.897 20.2133 228.097 20.81 228.097 21.57C228.097 22.33 227.861 22.95 227.387 23.43C226.921 23.9033 226.327 24.14 225.607 24.14C224.794 24.14 224.164 23.8633 223.717 23.31C223.271 22.7567 223.047 21.9633 223.047 20.93C223.047 19.63 223.267 18.6667 223.707 18.04C224.154 17.4067 224.934 17.04 226.047 16.94L227.717 16.79L227.807 17.83L226.147 17.97C225.394 18.03 224.861 18.2167 224.547 18.53C224.241 18.8367 224.057 19.3833 223.997 20.17C224.157 19.85 224.401 19.5967 224.727 19.41C225.061 19.2167 225.437 19.12 225.857 19.12C226.557 19.12 227.104 19.34 227.497 19.78ZM226.977 21.59C226.977 21.1167 226.854 20.74 226.607 20.46C226.367 20.18 226.034 20.04 225.607 20.04C225.187 20.04 224.841 20.1833 224.567 20.47C224.301 20.7567 224.167 21.13 224.167 21.59C224.167 22.09 224.294 22.4867 224.547 22.78C224.807 23.0667 225.154 23.21 225.587 23.21C226.014 23.21 226.351 23.0667 226.597 22.78C226.851 22.4867 226.977 22.09 226.977 21.59ZM228.355 23.99L228.455 23.1C228.635 23.1267 228.762 23.14 228.835 23.14C229.128 23.12 229.312 23.0067 229.385 22.8C229.458 22.5933 229.502 22.0933 229.515 21.3L229.535 18.98H233.435V24H232.335V19.87H230.535L230.515 21.32C230.502 22.38 230.398 23.0967 230.205 23.47C230.012 23.8367 229.618 24.0333 229.025 24.06C228.772 24.06 228.548 24.0367 228.355 23.99ZM238.924 20.57V24H237.934V23.43C237.601 23.9167 237.047 24.16 236.274 24.16C235.734 24.16 235.297 24.04 234.964 23.8C234.637 23.56 234.474 23.2067 234.474 22.74C234.474 22.2133 234.671 21.8233 235.064 21.57C235.471 21.3033 236.024 21.1067 236.724 20.98L237.874 20.77V20.59C237.874 20.3167 237.781 20.1067 237.594 19.96C237.407 19.8067 237.154 19.73 236.834 19.73C236.527 19.73 236.257 19.7933 236.024 19.92C235.797 20.04 235.531 20.2533 235.224 20.56L234.534 19.92C235.147 19.1867 235.904 18.82 236.804 18.82C237.477 18.82 237.997 18.9767 238.364 19.29C238.737 19.6033 238.924 20.03 238.924 20.57ZM237.874 22.03V21.57L237.004 21.75C236.477 21.8633 236.104 21.9867 235.884 22.12C235.664 22.2467 235.554 22.4333 235.554 22.68C235.554 22.8667 235.631 23.0133 235.784 23.12C235.944 23.2267 236.161 23.28 236.434 23.28C236.854 23.28 237.197 23.17 237.464 22.95C237.737 22.7233 237.874 22.4167 237.874 22.03ZM242.393 19.75C241.946 19.75 241.599 19.92 241.353 20.26C241.113 20.5933 240.993 21.0033 240.993 21.49C240.993 21.9767 241.113 22.3867 241.353 22.72C241.599 23.0467 241.946 23.21 242.393 23.21C242.646 23.21 242.876 23.1533 243.083 23.04C243.296 22.92 243.539 22.71 243.813 22.41L244.543 23.02C244.216 23.4333 243.886 23.7267 243.553 23.9C243.219 24.0667 242.829 24.15 242.383 24.15C241.629 24.15 241.023 23.91 240.563 23.43C240.103 22.9433 239.873 22.2967 239.873 21.49C239.873 20.6833 240.106 20.0367 240.573 19.55C241.039 19.0633 241.646 18.82 242.393 18.82C242.813 18.82 243.183 18.8933 243.503 19.04C243.823 19.1867 244.143 19.43 244.463 19.77L243.763 20.45C243.496 20.1833 243.259 20 243.053 19.9C242.853 19.8 242.633 19.75 242.393 19.75ZM249.338 19.87H247.668V24H246.568V19.87H244.908V18.98H249.338V19.87ZM253.562 18.98H254.762V24H253.732V22.16C253.732 21.2067 253.746 20.5067 253.772 20.06C253.286 20.8867 252.946 21.46 252.752 21.78L251.382 24H250.182V18.98H251.202V20.92C251.202 21.6533 251.192 22.3167 251.172 22.91C251.539 22.2567 251.876 21.6833 252.182 21.19L253.562 18.98Z" fill="white" fill-opacity="0.48"/>
<path d="M87.9167 40L87.2447 38.012H82.9187L82.2327 40H80.2587L83.8147 30.06H86.3907L89.9467 40H87.9167ZM83.4787 36.388H86.6847L86.2927 35.24L86.0547 34.54C85.6067 33.2707 85.28 32.2813 85.0747 31.572C84.8973 32.1787 84.538 33.2707 83.9967 34.848L83.8567 35.268L83.4787 36.388ZM98.7794 30.06H101.817V40H99.9134V34.96C99.9134 34.792 99.9228 34.036 99.9414 32.692L99.9554 31.586C99.7874 32.202 99.4468 33.3267 98.9334 34.96L97.3374 40H95.6294L94.0054 34.96C93.8841 34.5493 93.7441 34.12 93.5854 33.672C93.3801 33.056 93.1654 32.3747 92.9414 31.628C92.9694 32.7293 92.9834 33.84 92.9834 34.96V40H91.1074V30.06H94.1874L95.4894 34.106C95.9188 35.4407 96.2548 36.57 96.4974 37.494C96.7121 36.626 97.0434 35.4967 97.4914 34.106L98.7794 30.06ZM109.869 30.06H111.801L108.119 38.138C107.858 38.6793 107.629 39.0853 107.433 39.356C107.237 39.6173 106.985 39.8227 106.677 39.972C106.369 40.1213 105.973 40.2007 105.487 40.21C105.067 40.21 104.61 40.14 104.115 40L104.479 38.362C104.825 38.446 105.123 38.488 105.375 38.488C105.646 38.488 105.865 38.4367 106.033 38.334C106.211 38.222 106.365 38.0213 106.495 37.732L106.551 37.606L102.939 30.06H104.983L107.475 35.492L109.869 30.06ZM120.082 30.928C120.679 31.4973 120.978 32.2533 120.978 33.196C120.978 34.1387 120.679 34.8947 120.082 35.464C119.494 36.0333 118.701 36.318 117.702 36.318H114.874V40H112.914V30.06H117.702C118.701 30.06 119.494 30.3493 120.082 30.928ZM117.352 31.684H114.874V34.694H117.352C117.875 34.694 118.285 34.5633 118.584 34.302C118.883 34.0407 119.032 33.672 119.032 33.196C119.032 32.72 118.883 32.3513 118.584 32.09C118.295 31.8193 117.884 31.684 117.352 31.684ZM130.646 31.306L129.498 32.664C129.013 32.244 128.574 31.9547 128.182 31.796C127.8 31.628 127.38 31.544 126.922 31.544C126.017 31.544 125.294 31.8613 124.752 32.496C124.22 33.1213 123.954 33.9613 123.954 35.016C123.954 36.0707 124.22 36.92 124.752 37.564C125.294 38.1987 126.008 38.516 126.894 38.516C127.389 38.516 127.832 38.4227 128.224 38.236C128.598 38.0493 129.074 37.718 129.652 37.242L130.8 38.572C130.175 39.16 129.559 39.5847 128.952 39.846C128.355 40.1073 127.678 40.238 126.922 40.238C125.438 40.2567 124.234 39.7667 123.31 38.768C122.386 37.7693 121.934 36.514 121.952 35.002C121.934 33.4993 122.377 32.258 123.282 31.278C124.197 30.2887 125.415 29.8033 126.936 29.822C127.674 29.822 128.327 29.9387 128.896 30.172C129.466 30.396 130.049 30.774 130.646 31.306ZM138.482 40L135.458 35.604H133.946V40H131.986V30.06H133.946V33.952H135.486L138.356 30.06H140.582L137.096 34.736L140.722 40H138.482ZM148.756 40L148.084 38.012H143.758L143.072 40H141.098L144.654 30.06H147.23L150.786 40H148.756ZM144.318 36.388H147.524L147.132 35.24L146.894 34.54C146.446 33.2707 146.12 32.2813 145.914 31.572C145.737 32.1787 145.378 33.2707 144.836 34.848L144.696 35.268L144.318 36.388ZM155.093 30.06H159.755V40H157.851V36.388H156.353L153.679 40H151.495L154.295 36.304C153.567 36.1547 152.965 35.8 152.489 35.24C152.041 34.6987 151.817 34.0267 151.817 33.224C151.817 32.3 152.125 31.544 152.741 30.956C153.357 30.3587 154.141 30.06 155.093 30.06ZM157.851 34.75V31.684H155.443C154.93 31.684 154.519 31.824 154.211 32.104C153.903 32.3747 153.749 32.748 153.749 33.224C153.749 33.7 153.903 34.0733 154.211 34.344C154.519 34.6147 154.93 34.75 155.443 34.75H157.851ZM174.163 35.03C174.182 36.5233 173.734 37.7693 172.819 38.768C171.914 39.7667 170.728 40.2567 169.263 40.238C167.788 40.2567 166.594 39.7713 165.679 38.782C164.774 37.7833 164.33 36.5327 164.349 35.03C164.33 33.5273 164.774 32.2813 165.679 31.292C166.594 30.2933 167.788 29.8033 169.263 29.822C170.728 29.8033 171.914 30.2933 172.819 31.292C173.734 32.2907 174.182 33.5367 174.163 35.03ZM167.149 32.51C166.626 33.1447 166.365 33.9847 166.365 35.03C166.365 36.0753 166.626 36.9153 167.149 37.55C167.681 38.1847 168.386 38.502 169.263 38.502C170.131 38.502 170.826 38.1847 171.349 37.55C171.881 36.9153 172.147 36.0753 172.147 35.03C172.147 33.9847 171.881 33.1447 171.349 32.51C170.826 31.8753 170.131 31.558 169.263 31.558C168.386 31.558 167.681 31.8753 167.149 32.51ZM175.682 40V30.06H182.766V31.712H177.642V33.868H180.176C181.174 33.868 181.977 34.1433 182.584 34.694C183.19 35.2447 183.494 35.9913 183.494 36.934C183.494 37.8767 183.19 38.6233 182.584 39.174C181.977 39.7247 181.174 40 180.176 40H175.682ZM177.642 38.376H179.854C180.386 38.376 180.796 38.2547 181.086 38.012C181.384 37.76 181.534 37.4007 181.534 36.934C181.534 36.4673 181.384 36.1127 181.086 35.87C180.796 35.618 180.386 35.492 179.854 35.492H177.642V38.376ZM184.017 39.986L184.213 38.334C184.428 38.3713 184.652 38.39 184.885 38.39C185.221 38.39 185.464 38.2873 185.613 38.082C185.762 37.8953 185.856 37.634 185.893 37.298C185.94 36.962 185.968 36.3973 185.977 35.604L186.005 30.06H193.215V40H191.255V31.712H187.839L187.811 35.856C187.792 37.3867 187.601 38.4787 187.237 39.132C186.873 39.776 186.178 40.112 185.151 40.14C184.759 40.14 184.381 40.0887 184.017 39.986ZM202.036 40L201.364 38.012H197.038L196.352 40H194.378L197.934 30.06H200.51L204.066 40H202.036ZM197.598 36.388H200.804L200.412 35.24L200.174 34.54C199.726 33.2707 199.399 32.2813 199.194 31.572C199.016 32.1787 198.657 33.2707 198.116 34.848L197.976 35.268L197.598 36.388ZM213.129 31.306L211.981 32.664C211.495 32.244 211.057 31.9547 210.665 31.796C210.282 31.628 209.862 31.544 209.405 31.544C208.499 31.544 207.776 31.8613 207.235 32.496C206.703 33.1213 206.437 33.9613 206.437 35.016C206.437 36.0707 206.703 36.92 207.235 37.564C207.776 38.1987 208.49 38.516 209.377 38.516C209.871 38.516 210.315 38.4227 210.707 38.236C211.08 38.0493 211.556 37.718 212.135 37.242L213.283 38.572C212.657 39.16 212.041 39.5847 211.435 39.846C210.837 40.1073 210.161 40.238 209.405 40.238C207.921 40.2567 206.717 39.7667 205.793 38.768C204.869 37.7693 204.416 36.514 204.435 35.002C204.416 33.4993 204.859 32.258 205.765 31.278C206.679 30.2887 207.897 29.8033 209.419 29.822C210.156 29.822 210.809 29.9387 211.379 30.172C211.948 30.396 212.531 30.774 213.129 31.306ZM221.955 30.06V31.74H218.959V40H216.999V31.74H214.003V30.06H221.955ZM231.713 30.06V40H229.753V35.604H225.315V40H223.355V30.06H225.315V33.952H229.753V30.06H231.713ZM240.536 40L239.864 38.012H235.538L234.852 40H232.878L236.434 30.06H239.01L242.566 40H240.536ZM236.098 36.388H239.304L238.912 35.24L238.674 34.54C238.226 33.2707 237.899 32.2813 237.694 31.572C237.516 32.1787 237.157 33.2707 236.616 34.848L236.476 35.268L236.098 36.388ZM246.873 30.06H251.535V40H249.631V36.388H248.133L245.459 40H243.275L246.075 36.304C245.347 36.1547 244.745 35.8 244.269 35.24C243.821 34.6987 243.597 34.0267 243.597 33.224C243.597 32.3 243.905 31.544 244.521 30.956C245.137 30.3587 245.921 30.06 246.873 30.06ZM249.631 34.75V31.684H247.223C246.709 31.684 246.299 31.824 245.991 32.104C245.683 32.3747 245.529 32.748 245.529 33.224C245.529 33.7 245.683 34.0733 245.991 34.344C246.299 34.6147 246.709 34.75 247.223 34.75H249.631Z" fill="white"/>
<path d="M80.1187 44H274.119" stroke="white"/>
<path d="M87.6367 58L84.6127 53.604H83.1007V58H81.1407V48.06H83.1007V51.952H84.6407L87.5107 48.06H89.7367L86.2507 52.736L89.8767 58H87.6367ZM90.3374 57.986L90.5334 56.334C90.7481 56.3713 90.9721 56.39 91.2054 56.39C91.5414 56.39 91.7841 56.2873 91.9334 56.082C92.0828 55.8953 92.1761 55.634 92.2134 55.298C92.2601 54.962 92.2881 54.3973 92.2974 53.604L92.3254 48.06H99.5354V58H97.5754V49.712H94.1594L94.1314 53.856C94.1128 55.3867 93.9214 56.4787 93.5574 57.132C93.1934 57.776 92.4981 58.112 91.4714 58.14C91.0794 58.14 90.7014 58.0887 90.3374 57.986ZM107.838 48.06H109.966V58H108.062V54.57C108.062 52.8527 108.095 51.4433 108.16 50.342C107.647 51.294 106.961 52.4887 106.102 53.926L103.666 58H101.58V48.06H103.484V51.672C103.484 53.3893 103.456 54.7053 103.4 55.62C103.857 54.724 104.473 53.6413 105.248 52.372L107.838 48.06ZM120.37 48.06V58H118.41V53.604H113.972V58H112.012V48.06H113.972V51.952H118.41V48.06H120.37ZM128.674 48.06H130.802V58H128.898V54.57C128.898 52.8527 128.931 51.4433 128.996 50.342C128.483 51.294 127.797 52.4887 126.938 53.926L124.502 58H122.416V48.06H124.32V51.672C124.32 53.3893 124.292 54.7053 124.236 55.62C124.693 54.724 125.309 53.6413 126.084 52.372L128.674 48.06ZM138.462 48.06H140.422V58H138.462V54.15C137.762 54.3927 137.015 54.514 136.222 54.514C134.962 54.514 134.042 54.234 133.464 53.674C132.894 53.114 132.61 52.288 132.61 51.196V48.06H134.57V51.196C134.57 51.7653 134.724 52.176 135.032 52.428C135.34 52.6707 135.816 52.792 136.46 52.792C137.234 52.792 137.902 52.68 138.462 52.456V48.06ZM149.445 48.06V49.712H144.419V52.036H149.123V53.688H144.419V56.348H149.599V58H142.459V48.06H149.445ZM159.426 49.306L158.278 50.664C157.792 50.244 157.354 49.9547 156.962 49.796C156.579 49.628 156.159 49.544 155.702 49.544C154.796 49.544 154.073 49.8613 153.532 50.496C153 51.1213 152.734 51.9613 152.734 53.016C152.734 54.0707 153 54.92 153.532 55.564C154.073 56.1987 154.787 56.516 155.674 56.516C156.168 56.516 156.612 56.4227 157.004 56.236C157.377 56.0493 157.853 55.718 158.432 55.242L159.58 56.572C158.954 57.16 158.338 57.5847 157.732 57.846C157.134 58.1073 156.458 58.238 155.702 58.238C154.218 58.2567 153.014 57.7667 152.09 56.768C151.166 55.7693 150.713 54.514 150.732 53.002C150.713 51.4993 151.156 50.258 152.062 49.278C152.976 48.2887 154.194 47.8033 155.716 47.822C156.453 47.822 157.106 47.9387 157.676 48.172C158.245 48.396 158.828 48.774 159.426 49.306ZM167.262 58L164.238 53.604H162.726V58H160.766V48.06H162.726V51.952H164.266L167.136 48.06H169.362L165.876 52.736L169.502 58H167.262ZM177.536 58L176.864 56.012H172.538L171.852 58H169.878L173.434 48.06H176.01L179.566 58H177.536ZM173.098 54.388H176.304L175.912 53.24L175.674 52.54C175.226 51.2707 174.899 50.2813 174.694 49.572C174.516 50.1787 174.157 51.2707 173.616 52.848L173.476 53.268L173.098 54.388ZM183.873 48.06H188.535V58H186.631V54.388H185.133L182.459 58H180.275L183.075 54.304C182.347 54.1547 181.745 53.8 181.269 53.24C180.821 52.6987 180.597 52.0267 180.597 51.224C180.597 50.3 180.905 49.544 181.521 48.956C182.137 48.3587 182.921 48.06 183.873 48.06ZM186.631 52.75V49.684H184.223C183.709 49.684 183.299 49.824 182.991 50.104C182.683 50.3747 182.529 50.748 182.529 51.224C182.529 51.7 182.683 52.0733 182.991 52.344C183.299 52.6147 183.709 52.75 184.223 52.75H186.631ZM193.66 58V48.06H200.744V49.712H195.62V51.868H198.154C199.153 51.868 199.956 52.1433 200.562 52.694C201.169 53.2447 201.472 53.9913 201.472 54.934C201.472 55.8767 201.169 56.6233 200.562 57.174C199.956 57.7247 199.153 58 198.154 58H193.66ZM195.62 56.376H197.832C198.364 56.376 198.775 56.2547 199.064 56.012C199.363 55.76 199.512 55.4007 199.512 54.934C199.512 54.4673 199.363 54.1127 199.064 53.87C198.775 53.618 198.364 53.492 197.832 53.492H195.62V56.376ZM212.266 53.03C212.285 54.5233 211.837 55.7693 210.922 56.768C210.017 57.7667 208.832 58.2567 207.366 58.238C205.892 58.2567 204.697 57.7713 203.782 56.782C202.877 55.7833 202.434 54.5327 202.452 53.03C202.434 51.5273 202.877 50.2813 203.782 49.292C204.697 48.2933 205.892 47.8033 207.366 47.822C208.832 47.8033 210.017 48.2933 210.922 49.292C211.837 50.2907 212.285 51.5367 212.266 53.03ZM205.252 50.51C204.73 51.1447 204.468 51.9847 204.468 53.03C204.468 54.0753 204.73 54.9153 205.252 55.55C205.784 56.1847 206.489 56.502 207.366 56.502C208.234 56.502 208.93 56.1847 209.452 55.55C209.984 54.9153 210.25 54.0753 210.25 53.03C210.25 51.9847 209.984 51.1447 209.452 50.51C208.93 49.8753 208.234 49.558 207.366 49.558C206.489 49.558 205.784 49.8753 205.252 50.51ZM212.632 57.986L212.828 56.334C213.043 56.3713 213.267 56.39 213.5 56.39C213.836 56.39 214.079 56.2873 214.228 56.082C214.378 55.8953 214.471 55.634 214.508 55.298C214.555 54.962 214.583 54.3973 214.592 53.604L214.62 48.06H221.83V58H219.87V49.712H216.454L216.426 53.856C216.408 55.3867 216.216 56.4787 215.852 57.132C215.488 57.776 214.793 58.112 213.766 58.14C213.374 58.14 212.996 58.0887 212.632 57.986ZM223.875 58V48.06H225.835V51.728H228.327C229.335 51.728 230.147 52.0127 230.763 52.582C231.388 53.1513 231.701 53.912 231.701 54.864C231.701 55.816 231.388 56.5767 230.763 57.146C230.147 57.7153 229.335 58 228.327 58H223.875ZM225.835 56.376H228.005C228.556 56.376 228.985 56.2453 229.293 55.984C229.601 55.7227 229.755 55.3493 229.755 54.864C229.755 54.3787 229.601 54.0053 229.293 53.744C228.985 53.4827 228.556 53.352 228.005 53.352H225.835V56.376ZM241.462 48.06V58H239.502V53.604H235.064V58H233.104V48.06H235.064V51.952H239.502V48.06H241.462ZM249.766 48.06H251.894V58H249.99V54.57C249.99 52.8527 250.023 51.4433 250.088 50.342C249.575 51.294 248.889 52.4887 248.03 53.926L245.594 58H243.508V48.06H245.412V51.672C245.412 53.3893 245.384 54.7053 245.328 55.62C245.785 54.724 246.401 53.6413 247.176 52.372L249.766 48.06ZM253.939 48.06H255.899V56.348H260.057V48.06H262.017V56.348H263.235V60.072H261.345V58H253.939V48.06ZM271.598 58L270.926 56.012H266.6L265.914 58H263.94L267.496 48.06H270.072L273.628 58H271.598ZM267.16 54.388H270.366L269.974 53.24L269.736 52.54C269.288 51.2707 268.962 50.2813 268.756 49.572C268.579 50.1787 268.22 51.2707 267.678 52.848L267.538 53.268L267.16 54.388Z" fill="white"/>
</svg>
