<svg width="22" height="22" viewBox="0 0 22 22" fill="none" xmlns="http://www.w3.org/2000/svg">
<mask id="mask0_2995_6185" style="mask-type:alpha" maskUnits="userSpaceOnUse" x="0" y="0" width="22" height="22">
<rect width="22" height="22" fill="#D9D9D9"/>
</mask>
<g mask="url(#mask0_2995_6185)">
<path d="M14.6667 10.0375V7.2875H11.9167V5.45416H14.6667V2.70416H16.5V5.45416H19.25V7.2875H16.5V10.0375H14.6667ZM18.2875 19.25C16.3167 19.25 14.3956 18.8106 12.5244 17.9318C10.6526 17.0537 8.99494 15.8926 7.5515 14.4485C6.10744 13.0051 4.94633 11.3474 4.06817 9.47558C3.18939 7.60436 2.75 5.68333 2.75 3.7125C2.75 3.4375 2.84167 3.20833 3.025 3.025C3.20833 2.84166 3.4375 2.75 3.7125 2.75H7.425C7.63889 2.75 7.82986 2.81875 7.99792 2.95625C8.16597 3.09375 8.26528 3.26944 8.29583 3.48333L8.89167 6.69166C8.92222 6.90555 8.91856 7.10019 8.88067 7.27558C8.84217 7.45158 8.75417 7.60833 8.61667 7.74583L6.41667 9.99166C7.05833 11.0917 7.86042 12.1229 8.82292 13.0854C9.78542 14.0479 10.8472 14.8806 12.0083 15.5833L14.1625 13.4292C14.3 13.2917 14.4797 13.1884 14.7015 13.1193C14.9227 13.0509 15.1403 13.0319 15.3542 13.0625L18.5167 13.7042C18.7306 13.75 18.9062 13.853 19.0438 14.0131C19.1812 14.1738 19.25 14.3611 19.25 14.575V18.2875C19.25 18.5625 19.1583 18.7917 18.975 18.975C18.7917 19.1583 18.5625 19.25 18.2875 19.25ZM5.54583 8.25L7.05833 6.7375L6.64583 4.58333H4.62917C4.70556 5.20972 4.8125 5.82847 4.95 6.43958C5.0875 7.05069 5.28611 7.65416 5.54583 8.25ZM17.4167 17.3708V15.3542L15.2625 14.8958L13.75 16.4083C14.3458 16.6681 14.9493 16.8819 15.5604 17.05C16.1715 17.2181 16.7903 17.325 17.4167 17.3708Z" fill="#5B70B9"/>
</g>
</svg>
