<svg width="22" height="22" viewBox="0 0 22 22" fill="none" xmlns="http://www.w3.org/2000/svg">
<mask id="mask0_2995_6182" style="mask-type:alpha" maskUnits="userSpaceOnUse" x="0" y="0" width="22" height="22">
<rect width="22" height="22" fill="#D9D9D9"/>
</mask>
<g mask="url(#mask0_2995_6182)">
<path d="M18.2875 19.25C16.3167 19.25 14.3956 18.8106 12.5244 17.9318C10.6526 17.0537 8.99494 15.8926 7.5515 14.4485C6.10744 13.0051 4.94633 11.3474 4.06817 9.47558C3.18939 7.60436 2.75 5.68333 2.75 3.7125C2.75 3.4375 2.84167 3.20833 3.025 3.025C3.20833 2.84167 3.4375 2.75 3.7125 2.75H7.425C7.63889 2.75 7.82986 2.81875 7.99792 2.95625C8.16597 3.09375 8.26528 3.26944 8.29583 3.48333L8.89167 6.69167C8.92222 6.90556 8.91856 7.10019 8.88067 7.27558C8.84217 7.45158 8.75417 7.60833 8.61667 7.74583L6.39375 9.99167C7.03542 11.0917 7.84147 12.1229 8.81192 13.0854C9.78175 14.0479 10.8472 14.8806 12.0083 15.5833L14.1625 13.4292C14.3 13.2917 14.4797 13.1884 14.7015 13.1193C14.9227 13.0509 15.1403 13.0319 15.3542 13.0625L18.5167 13.7042C18.7306 13.75 18.9062 13.853 19.0438 14.0131C19.1812 14.1738 19.25 14.3611 19.25 14.575V18.2875C19.25 18.5625 19.1583 18.7917 18.975 18.975C18.7917 19.1583 18.5625 19.25 18.2875 19.25ZM5.52292 8.25L7.03542 6.7375L6.64583 4.58333H4.60625C4.68264 5.20972 4.78958 5.82847 4.92708 6.43958C5.06458 7.05069 5.26319 7.65417 5.52292 8.25ZM17.4167 17.3708V15.3542L15.2625 14.9187L13.7271 16.4542C14.3229 16.7139 14.9304 16.9201 15.5494 17.0729C16.1679 17.2257 16.7903 17.325 17.4167 17.3708Z" fill="#5B70B9"/>
</g>
</svg>
