<svg width="28" height="28" viewBox="0 0 28 28" fill="none" xmlns="http://www.w3.org/2000/svg">
<path fill-rule="evenodd" clip-rule="evenodd" d="M14 28C21.732 28 28 21.732 28 14C28 6.26801 21.732 0 14 0C6.26801 0 0 6.26801 0 14C0 21.732 6.26801 28 14 28ZM14.5819 10.722C13.3281 11.2333 10.8221 12.2916 7.06399 13.8969C6.45373 14.1348 6.13406 14.3676 6.10495 14.5952C6.05577 14.9798 6.54706 15.1312 7.21606 15.3375C7.30707 15.3655 7.40137 15.3946 7.49804 15.4254C8.15625 15.6352 9.04167 15.8806 9.50195 15.8903C9.91948 15.8992 10.3855 15.7304 10.9 15.3841C14.4113 13.0603 16.2238 11.8857 16.3376 11.8604C16.4179 11.8425 16.5291 11.8201 16.6045 11.8858C16.6799 11.9514 16.6725 12.0758 16.6645 12.1092C16.6158 12.3126 14.6872 14.0705 13.6892 14.9801C13.3782 15.2637 13.1575 15.4648 13.1124 15.5108C13.0113 15.6137 12.9083 15.711 12.8093 15.8046C12.1978 16.3825 11.7393 16.8159 12.8347 17.5237C13.3617 17.8641 13.7833 18.1456 14.204 18.4265C14.6625 18.7326 15.1199 19.0381 15.7116 19.4183C15.8625 19.5153 16.0067 19.6161 16.1471 19.7142C16.6812 20.0875 17.161 20.4228 17.7538 20.3694C18.0982 20.3382 18.4541 20.0207 18.6348 19.0736C19.0619 16.8352 19.9014 11.9854 20.0953 9.98691C20.1123 9.81181 20.091 9.58773 20.0738 9.48936C20.0566 9.39099 20.0207 9.25083 19.8903 9.14708C19.7358 9.02421 19.4974 8.9983 19.3908 9.00005C18.9059 9.00851 18.162 9.26211 14.5819 10.722Z" fill="#1F87EF"/>
</svg>
